<svg id="visual" viewBox="0 0 960 540" width="960" height="540" xmlns="http://www.w3.org/2000/svg" xmlns:xlink="http://www.w3.org/1999/xlink" version="1.1"><rect x="0" y="0" width="960" height="540" fill="#250e50"></rect><path d="M0 232L32 219C64 206 128 180 192 179C256 178 320 202 384 230.7C448 259.3 512 292.7 576 303C640 313.3 704 300.7 768 288C832 275.3 896 262.7 928 256.3L960 250L960 541L928 541C896 541 832 541 768 541C704 541 640 541 576 541C512 541 448 541 384 541C320 541 256 541 192 541C128 541 64 541 32 541L0 541Z" fill="#47008a"></path><path d="M0 284L32 279.7C64 275.3 128 266.7 192 269.8C256 273 320 288 384 308.7C448 329.3 512 355.7 576 351.2C640 346.7 704 311.3 768 299.2C832 287 896 298 928 303.5L960 309L960 541L928 541C896 541 832 541 768 541C704 541 640 541 576 541C512 541 448 541 384 541C320 541 256 541 192 541C128 541 64 541 32 541L0 541Z" fill="#5900c2"></path><path d="M0 398L32 408C64 418 128 438 192 449.7C256 461.3 320 464.7 384 451.5C448 438.3 512 408.7 576 405.5C640 402.3 704 425.7 768 423C832 420.3 896 391.7 928 377.3L960 363L960 541L928 541C896 541 832 541 768 541C704 541 640 541 576 541C512 541 448 541 384 541C320 541 256 541 192 541C128 541 64 541 32 541L0 541Z" fill="#6600ff"></path></svg>